<?xml version="1.0" standalone="no"?>
<!DOCTYPE svg PUBLIC "-//W3C//DTD SVG 20010904//EN"
 "http://www.w3.org/TR/2001/REC-SVG-20010904/DTD/svg10.dtd">
<svg version="1.0" xmlns="http://www.w3.org/2000/svg"
 width="1382.000000pt" height="1382.000000pt" viewBox="0 0 1382.000000 1382.000000"
 preserveAspectRatio="xMidYMid meet">
<metadata>
Created by potrace 1.14, written by Peter Selinger 2001-2017
</metadata>
<g transform="translate(0.000000,1382.000000) scale(0.100000,-0.100000)"
fill="#000000" stroke="none">
<path d="M3290 10407 c0 -8 -5 -17 -12 -19 -7 -3 -11 -22 -10 -51 2 -28 -1
-47 -8 -47 -5 0 -10 -9 -10 -19 0 -11 -5 -21 -12 -23 -6 -2 -11 -25 -12 -50 0
-38 -4 -49 -23 -59 -19 -10 -23 -21 -23 -60 0 -57 -7 -79 -26 -79 -10 0 -14
-14 -14 -50 0 -27 -4 -50 -10 -50 -5 0 -10 -9 -10 -20 0 -11 -4 -20 -10 -20
-5 0 -10 -22 -10 -50 0 -27 -4 -50 -10 -50 -5 0 -10 -9 -10 -19 0 -11 -5 -21
-10 -23 -6 -2 -11 -25 -12 -51 0 -26 -4 -47 -9 -47 -5 0 -9 -9 -9 -19 0 -11
-4 -21 -9 -23 -5 -1 -11 -21 -12 -43 -2 -24 -11 -47 -23 -57 -13 -13 -19 -31
-19 -62 0 -29 -5 -47 -13 -50 -8 -3 -14 -12 -14 -21 0 -8 -4 -15 -10 -15 -5 0
-10 -22 -10 -50 0 -27 -4 -50 -10 -50 -5 0 -10 -9 -10 -20 0 -11 -4 -20 -10
-20 -5 0 -10 -22 -10 -50 0 -27 -4 -50 -10 -50 -5 0 -10 -9 -10 -20 0 -11 -4
-20 -10 -20 -5 0 -10 -22 -10 -50 0 -27 -4 -50 -10 -50 -5 0 -10 -9 -10 -20 0
-11 -4 -20 -10 -20 -5 0 -10 -19 -10 -41 0 -30 -6 -47 -21 -60 -15 -12 -21
-31 -22 -63 0 -25 -5 -46 -9 -46 -4 0 -8 -9 -8 -20 0 -11 -7 -23 -15 -26 -10
-4 -15 -20 -15 -45 0 -21 -9 -54 -20 -74 -11 -20 -20 -50 -20 -68 0 -35 -20
-87 -32 -87 -5 0 -8 -22 -8 -49 0 -39 -4 -53 -21 -65 -18 -12 -21 -25 -21 -72
0 -47 -4 -57 -19 -61 -19 -5 -24 -27 -19 -80 1 -13 -3 -23 -9 -23 -6 0 -11 -9
-11 -19 0 -11 -5 -21 -12 -23 -11 -4 -17 -123 -6 -133 6 -7 306 -13 687 -15
213 -1 297 -4 305 -13 15 -15 19 -437 5 -437 -5 0 -9 -8 -9 -18 0 -10 -4 -22
-10 -28 -5 -5 -11 -29 -12 -52 -1 -23 -5 -42 -10 -42 -4 0 -8 -9 -8 -20 0 -11
-7 -20 -15 -20 -11 0 -15 -11 -15 -40 0 -22 -4 -40 -10 -40 -5 0 -10 -9 -10
-20 0 -11 -4 -20 -10 -20 -5 0 -10 -22 -10 -50 0 -27 -4 -50 -10 -50 -5 0 -10
-9 -10 -19 0 -11 -4 -21 -9 -23 -6 -1 -11 -24 -12 -50 -2 -27 -6 -48 -11 -48
-4 0 -8 -9 -8 -19 0 -11 -5 -21 -12 -23 -6 -2 -11 -21 -10 -43 1 -27 -4 -43
-19 -56 -15 -13 -21 -30 -21 -58 0 -23 -3 -43 -9 -46 -5 -4 -9 -15 -9 -25 0
-10 -5 -20 -11 -22 -6 -2 -12 -24 -13 -48 0 -25 -5 -50 -11 -57 -5 -7 -16 -19
-23 -28 -9 -10 -13 -33 -10 -61 2 -30 -1 -44 -9 -44 -7 0 -13 -9 -13 -20 0
-11 -4 -20 -10 -20 -5 0 -10 -22 -10 -50 0 -39 -4 -53 -20 -62 -15 -10 -20
-24 -20 -60 0 -27 -4 -48 -10 -48 -5 0 -10 -7 -10 -15 0 -8 -4 -15 -10 -15 -6
0 -10 -30 -10 -70 0 -60 3 -70 18 -71 9 -1 37 -2 62 -4 25 -2 58 -8 73 -14 36
-14 257 -15 257 -1 0 6 11 10 25 10 l25 0 0 -150 0 -151 -30 -17 c-16 -9 -30
-23 -30 -30 0 -8 -13 -27 -30 -42 -17 -15 -30 -34 -30 -40 0 -7 -12 -23 -27
-36 -15 -13 -24 -26 -21 -30 8 -7 -57 -74 -72 -74 -5 0 -10 -8 -10 -18 0 -10
-9 -24 -20 -32 -11 -8 -20 -21 -20 -30 0 -9 -9 -22 -20 -30 -11 -8 -20 -22
-20 -32 0 -10 -4 -18 -10 -18 -5 0 -10 -13 -10 -30 0 -25 4 -30 25 -30 14 0
25 -5 25 -11 0 -7 19 -9 58 -4 31 3 99 8 150 11 l92 5 1 -88 c1 -48 3 -224 4
-390 1 -167 4 -306 8 -309 3 -4 29 -7 57 -7 35 0 53 -4 57 -13 7 -18 33 -18
33 0 0 13 28 16 59 7 2 0 -7 -11 -21 -23 -14 -13 -29 -33 -33 -45 -3 -13 -12
-23 -19 -23 -8 0 -16 -13 -19 -30 -4 -16 -11 -30 -17 -30 -15 0 -60 -46 -60
-61 0 -6 -10 -20 -22 -31 -21 -18 -22 -23 -21 -274 0 -140 3 -257 5 -260 3 -2
41 -5 86 -6 58 -2 82 -6 82 -15 0 -10 26 -13 98 -14 199 -1 267 1 270 11 2 6
12 10 23 10 10 0 19 4 19 9 0 5 16 19 35 32 19 13 35 31 35 40 0 9 13 27 30
40 16 13 30 29 30 34 0 14 45 65 57 65 6 0 13 14 17 30 3 18 12 30 21 30 8 0
15 7 15 15 0 9 10 26 23 39 31 33 57 65 57 72 0 3 7 12 15 21 8 8 13 18 11 22
-3 3 11 17 30 30 19 13 34 29 34 36 0 16 34 55 49 55 6 0 11 8 11 18 0 10 9
24 20 32 11 8 20 21 20 28 0 8 14 27 30 42 17 15 30 32 30 37 0 13 46 63 59
63 6 0 11 9 11 20 0 11 9 25 20 32 11 7 20 19 20 26 0 8 14 27 30 42 17 15 30
31 30 35 0 5 12 20 27 34 16 15 34 39 42 54 8 15 20 27 28 27 7 0 13 8 13 18
0 22 32 62 49 62 6 0 11 7 11 16 0 9 14 29 30 44 17 15 30 34 30 40 0 7 8 20
18 29 9 9 23 28 31 42 7 15 24 33 37 40 13 7 24 20 24 29 0 9 8 24 18 33 16
15 47 17 226 17 174 0 210 2 223 16 14 13 15 101 15 789 l-1 774 294 -2 293
-2 -1 -39 c-1 -28 -8 -43 -24 -53 -18 -12 -23 -25 -23 -59 0 -24 -4 -44 -10
-44 -5 0 -10 -9 -10 -20 0 -11 -4 -20 -10 -20 -6 0 -10 -30 -10 -70 0 -70 0
-70 28 -70 16 0 34 8 42 20 8 11 22 20 32 20 10 0 32 14 50 30 17 17 36 30 42
30 6 0 18 9 26 20 8 11 21 20 28 20 8 0 32 16 53 35 22 19 47 35 57 35 10 0
24 9 32 20 8 11 21 20 30 20 8 0 30 18 49 40 19 22 42 40 51 40 9 0 26 9 38
20 12 11 26 20 33 20 6 0 24 14 39 30 15 17 33 30 39 30 7 0 23 11 37 25 14
14 34 25 44 25 11 0 24 9 30 20 6 11 16 20 23 20 15 0 51 26 80 58 11 12 31
22 44 22 20 0 23 5 23 40 0 22 -4 40 -10 40 -5 0 -10 9 -10 20 0 11 -5 20 -11
20 -15 0 -39 26 -39 42 0 8 -9 20 -20 28 -11 8 -20 21 -20 30 0 9 -9 22 -20
30 -11 8 -20 21 -20 30 0 8 -9 21 -20 28 -11 7 -20 21 -20 32 0 11 -5 20 -10
20 -19 0 -37 24 -32 42 2 10 -1 18 -8 18 -16 0 -40 25 -40 42 0 8 -9 20 -20
28 -11 8 -20 21 -20 30 0 9 -9 22 -20 30 -11 8 -20 22 -20 32 0 10 -7 18 -15
18 -9 0 -18 12 -22 30 -3 17 -10 30 -15 30 -15 0 -38 27 -38 44 0 9 -4 16 -10
16 -5 0 -10 9 -10 20 0 17 -7 20 -50 20 -55 0 -52 5 -52 -80 0 -22 -8 -41 -21
-52 -14 -13 -20 -30 -20 -63 0 -25 -4 -45 -8 -45 -5 0 -9 -7 -9 -16 0 -8 -7
-23 -16 -31 -10 -10 -13 -25 -9 -40 l6 -24 -361 3 c-271 2 -360 5 -360 14 0
22 12 44 24 44 7 0 19 12 27 28 8 15 21 34 31 43 9 8 18 22 20 29 4 18 44 60
58 60 5 0 10 9 10 19 0 11 14 31 30 44 17 14 30 31 30 37 0 7 14 25 30 40 17
15 30 35 30 43 0 9 9 18 19 22 11 3 23 14 26 24 8 25 40 61 54 61 6 0 11 8 11
18 0 9 14 30 30 45 17 16 30 33 30 39 0 5 14 23 31 39 17 16 32 37 33 46 1 10
12 22 23 28 12 5 24 21 26 35 3 14 17 32 31 40 14 7 26 21 26 29 0 9 9 22 20
29 11 7 20 19 20 28 0 17 36 54 52 54 4 0 8 8 8 18 0 19 42 62 60 62 6 0 10 9
10 20 0 11 14 32 30 47 17 14 30 31 30 37 0 7 9 18 20 26 11 8 20 21 20 29 0
7 14 27 30 43 17 15 30 33 30 39 0 16 24 36 38 31 6 -2 12 3 12 12 0 9 5 16
11 16 6 0 9 9 6 20 -3 11 -2 20 1 20 16 0 62 49 63 66 0 11 3 13 6 7 2 -7 17
-13 31 -14 15 0 21 -3 15 -6 -8 -3 -13 -24 -13 -53 0 -40 -4 -50 -20 -55 -17
-5 -20 -15 -20 -63 0 -46 -4 -60 -20 -72 -16 -11 -20 -26 -20 -69 0 -42 -4
-58 -21 -72 -16 -14 -22 -30 -22 -64 0 -25 -4 -45 -8 -45 -5 0 -9 -9 -9 -19 0
-10 -7 -21 -15 -25 -12 -4 -14 -17 -11 -51 4 -36 1 -45 -11 -45 -10 0 -14 -6
-10 -20 3 -13 0 -20 -9 -20 -10 0 -14 -14 -14 -50 0 -27 -4 -50 -10 -50 -5 0
-10 -6 -10 -14 0 -8 -4 -16 -9 -18 -5 -1 -10 -34 -11 -73 -2 -101 -2 -105 15
-105 9 0 18 -12 22 -30 3 -16 12 -30 19 -30 8 0 14 -8 14 -18 0 -10 9 -24 20
-32 11 -8 20 -21 20 -30 0 -9 9 -22 20 -30 11 -8 20 -21 20 -30 0 -9 9 -22 20
-30 11 -8 20 -22 20 -32 0 -10 5 -18 10 -18 6 0 10 -9 10 -20 0 -11 5 -20 10
-20 6 0 10 -7 10 -15 0 -8 5 -15 10 -15 6 0 10 -7 10 -15 0 -8 5 -15 11 -15
15 0 39 -26 39 -42 0 -8 9 -20 20 -28 11 -8 20 -21 20 -30 0 -8 9 -21 20 -28
11 -7 20 -21 20 -32 0 -11 5 -20 11 -20 15 0 39 -26 31 -34 -3 -4 6 -17 21
-30 15 -13 27 -30 27 -37 0 -8 9 -21 20 -29 11 -8 20 -22 20 -32 0 -27 46 -23
76 7 15 15 26 38 27 58 1 17 6 35 11 38 5 4 9 18 9 33 0 15 5 26 13 26 10 0
14 13 14 40 0 22 5 40 10 40 6 0 10 14 10 30 0 17 5 30 10 30 6 0 10 18 10 40
0 22 5 40 10 40 6 0 10 11 10 24 0 13 5 26 10 28 6 2 11 20 12 41 1 20 5 37
10 37 4 0 8 14 8 30 0 17 5 30 10 30 6 0 10 13 10 29 0 16 5 31 10 33 6 2 12
14 12 28 1 14 6 28 11 31 4 3 9 21 9 40 1 18 7 39 14 47 7 7 10 20 7 28 -3 9
0 20 7 24 7 5 13 23 13 42 0 18 6 38 13 45 7 8 11 22 9 33 -2 13 2 20 11 20
10 0 14 12 14 40 0 22 5 40 10 40 6 0 10 11 10 25 0 14 5 25 10 25 6 0 10 18
10 40 0 22 5 40 10 40 6 0 10 14 10 30 0 17 5 30 10 30 6 0 10 18 10 40 0 22
5 40 10 40 6 0 10 14 10 30 0 17 5 30 10 30 6 0 10 11 10 24 0 18 7 25 28 29
15 3 29 3 32 1 2 -3 5 -283 5 -623 1 -340 5 -623 9 -629 10 -16 56 -15 57 1 1
6 0 24 -1 40 -1 15 3 27 9 27 6 0 11 18 11 39 0 22 5 41 11 43 5 2 11 19 11
38 1 19 7 40 14 48 7 7 11 19 8 27 -3 8 1 21 9 30 10 9 14 26 11 45 -4 23 -1
30 10 30 11 0 16 9 16 30 0 17 5 30 10 30 6 0 10 14 10 30 0 17 5 30 10 30 6
0 10 16 10 35 0 19 5 35 10 35 6 0 10 14 10 30 0 17 5 30 10 30 6 0 10 14 10
30 0 17 5 30 10 30 6 0 10 18 10 40 0 22 5 40 10 40 6 0 10 14 10 30 0 17 5
30 10 30 6 0 10 18 10 40 0 22 5 40 10 40 6 0 10 13 10 29 0 16 5 31 12 33 6
2 11 19 10 38 0 19 4 38 10 41 6 4 11 18 11 32 0 14 6 28 15 32 11 4 13 15 9
40 -4 26 -2 35 9 35 8 0 14 10 14 25 0 14 5 25 10 25 6 0 10 14 10 30 0 17 5
30 10 30 6 0 10 14 10 30 0 17 5 30 10 30 6 0 10 18 10 40 0 22 5 40 10 40 6
0 10 13 10 29 0 17 5 33 10 36 6 3 10 22 10 41 0 19 5 34 10 34 6 0 10 13 10
29 0 16 5 31 11 33 10 3 15 105 6 114 -2 2 -94 5 -205 6 -162 1 -202 4 -202
15 0 8 -12 13 -30 13 -20 0 -30 -5 -30 -15 0 -8 -4 -15 -10 -15 -5 0 -10 11
-10 25 0 16 -6 25 -15 25 -18 0 -17 -51 -21 842 -2 613 -4 658 -21 677 -17 20
-26 21 -250 21 -204 0 -233 -2 -233 -15 0 -18 -43 -65 -60 -65 -5 0 -10 -10
-10 -22 0 -14 -12 -31 -30 -43 -16 -11 -30 -27 -30 -35 0 -9 -9 -22 -20 -30
-11 -8 -20 -20 -20 -28 0 -16 -17 -35 -48 -51 -13 -7 -22 -20 -20 -29 4 -17
-31 -52 -51 -52 -6 0 -11 -10 -11 -23 0 -12 -9 -28 -20 -35 -11 -7 -20 -17
-20 -23 0 -6 -18 -28 -40 -49 -22 -21 -40 -44 -40 -52 0 -7 -11 -22 -25 -32
-14 -10 -25 -24 -25 -31 0 -16 -34 -55 -49 -55 -6 0 -11 -8 -11 -19 0 -10 -13
-29 -30 -42 -16 -13 -30 -31 -30 -39 0 -9 -9 -22 -20 -30 -11 -8 -20 -22 -20
-32 0 -10 -4 -18 -10 -18 -5 0 -20 -11 -34 -25 -14 -14 -30 -25 -36 -25 -5 0
-10 -9 -10 -20 0 -11 -9 -25 -20 -32 -11 -7 -20 -19 -20 -26 0 -8 -13 -27 -30
-42 -16 -15 -30 -33 -30 -39 0 -15 -45 -61 -60 -61 -5 0 -10 -9 -10 -20 0 -10
-8 -27 -19 -37 -10 -10 -22 -28 -25 -40 -4 -13 -14 -23 -22 -23 -8 0 -14 -4
-14 -9 0 -5 -9 -13 -20 -16 -13 -4 -20 -15 -20 -30 0 -15 -7 -26 -20 -30 -11
-3 -20 -13 -20 -21 0 -19 -40 -64 -57 -64 -7 0 -13 -10 -13 -23 0 -22 -31 -57
-50 -57 -6 0 -10 -8 -10 -18 0 -10 -9 -24 -20 -32 -11 -8 -20 -21 -20 -28 0
-7 -18 -31 -40 -52 -22 -21 -40 -44 -40 -52 0 -7 -11 -22 -25 -32 -14 -10 -25
-24 -25 -31 0 -6 -9 -20 -20 -30 -11 -10 -20 -22 -20 -28 0 -11 -59 -67 -71
-67 -5 0 -9 -9 -9 -20 0 -11 -9 -25 -20 -32 -11 -7 -20 -19 -20 -26 0 -15 -44
-62 -58 -62 -5 0 -12 -14 -16 -30 -3 -19 -15 -34 -31 -42 l-25 -11 0 -803 c0
-441 -3 -809 -6 -818 -3 -9 -12 -16 -20 -16 -8 0 -14 -8 -14 -18 0 -10 -18
-34 -40 -53 -22 -19 -40 -41 -40 -49 0 -9 -9 -22 -20 -30 -11 -8 -20 -20 -20
-28 0 -15 -45 -62 -60 -62 -5 0 -10 -8 -10 -18 0 -18 -33 -52 -50 -52 -6 0
-10 -8 -10 -18 0 -10 -9 -24 -20 -32 -11 -8 -20 -21 -20 -28 0 -7 -17 -30 -37
-51 -21 -20 -44 -49 -52 -64 -8 -15 -20 -27 -28 -27 -7 0 -13 -9 -13 -19 0
-11 -14 -31 -30 -44 -16 -14 -30 -31 -30 -37 0 -7 -14 -25 -30 -40 -16 -15
-30 -33 -30 -39 0 -6 -4 -11 -10 -11 -5 0 -10 -7 -10 -15 0 -8 -4 -15 -10 -15
-5 0 -10 -6 -10 -14 0 -17 -59 -76 -77 -76 -7 0 -13 -9 -13 -20 0 -11 -9 -25
-20 -32 -11 -7 -20 -19 -20 -26 0 -8 -13 -27 -30 -42 -16 -15 -30 -33 -30 -39
0 -15 -45 -61 -60 -61 -5 0 -10 -9 -10 -20 0 -11 -9 -25 -20 -32 -11 -7 -20
-20 -20 -29 0 -8 -18 -31 -40 -50 -22 -19 -40 -42 -40 -51 0 -9 -9 -20 -20
-23 -11 -3 -20 -12 -20 -20 0 -7 -11 -23 -25 -36 -13 -13 -25 -29 -25 -35 0
-14 -35 -54 -47 -54 -5 0 -16 -12 -24 -27 -8 -16 -22 -35 -31 -44 -10 -9 -18
-22 -18 -28 0 -14 -65 -81 -78 -81 -5 0 -12 -13 -15 -30 -4 -18 -13 -30 -22
-30 -8 0 -15 -9 -15 -20 0 -13 -12 -28 -30 -38 -16 -9 -30 -23 -30 -31 0 -8
-13 -27 -30 -43 -16 -15 -30 -33 -30 -39 0 -14 -25 -39 -39 -39 -6 0 -11 -8
-11 -18 0 -22 -32 -62 -49 -62 -6 0 -11 -4 -11 -9 0 -5 -9 -7 -20 -4 -21 5
-30 53 -10 53 6 0 10 13 10 29 0 16 5 31 10 33 6 2 12 14 13 28 1 14 7 31 14
38 7 7 9 20 6 28 -3 9 0 20 7 24 7 4 13 23 12 41 0 19 4 37 10 40 6 4 11 18
11 33 0 15 5 26 13 26 10 0 14 13 14 40 0 22 5 40 10 40 6 0 10 11 10 25 0 14
5 25 10 25 6 0 10 18 10 40 0 22 5 40 10 40 6 0 10 14 10 30 0 17 5 30 10 30
6 0 10 14 10 30 0 17 5 30 10 30 6 0 10 18 10 40 0 22 5 40 10 40 6 0 10 14
10 30 0 17 5 30 10 30 6 0 10 13 10 29 0 16 5 31 10 33 6 2 11 20 12 41 1 20
5 37 10 37 4 0 8 11 8 24 0 14 5 28 10 31 6 3 10 21 10 40 0 19 5 37 10 40 6
3 10 17 10 30 0 12 7 25 15 29 8 3 15 17 15 31 0 14 5 25 11 25 7 0 10 12 7
30 -3 20 0 30 9 30 9 0 13 13 13 40 0 22 5 40 10 40 6 0 10 14 10 30 0 17 5
30 10 30 6 0 10 23 10 50 0 28 5 50 10 50 6 0 10 38 10 95 0 57 -4 95 -10 95
-5 0 -10 18 -10 40 0 22 -4 40 -10 40 -5 0 -10 9 -10 20 0 11 -5 20 -10 20 -6
0 -35 25 -65 55 -49 48 -60 55 -95 55 -33 0 -40 3 -40 20 0 11 5 20 10 20 6 0
10 7 10 15 0 8 5 15 10 15 6 0 10 9 10 20 0 11 5 20 10 20 6 0 10 9 10 20 0
11 5 20 10 20 6 0 10 9 10 20 0 11 5 20 10 20 6 0 10 9 10 20 0 11 5 20 10 20
6 0 10 9 10 20 0 11 5 20 10 20 6 0 10 9 10 20 0 11 5 20 10 20 6 0 10 9 10
20 0 11 5 20 10 20 6 0 10 7 10 16 0 8 6 22 13 29 31 35 37 45 37 60 0 8 5 15
10 15 6 0 10 9 10 20 0 11 5 20 10 20 6 0 10 9 10 20 0 11 5 20 10 20 6 0 10
9 10 20 0 11 5 20 10 20 6 0 10 9 10 20 0 11 5 20 10 20 6 0 10 7 10 15 0 8 5
15 10 15 6 0 10 9 10 20 0 11 5 20 10 20 6 0 10 9 10 20 0 11 5 20 10 20 6 0
10 9 10 20 0 11 5 20 10 20 6 0 10 9 10 20 0 11 7 20 15 20 8 0 15 9 15 20 0
11 5 20 10 20 6 0 10 9 10 20 0 11 5 20 10 20 6 0 10 9 10 20 0 11 5 20 10 20
6 0 10 9 10 20 0 11 5 20 10 20 6 0 10 9 10 20 0 11 5 20 10 20 6 0 10 9 10
20 0 11 5 20 10 20 6 0 10 8 10 18 0 10 9 24 20 32 11 8 20 20 20 27 0 7 5 13
10 13 6 0 10 11 10 25 0 16 6 25 15 25 8 0 15 9 15 20 0 11 4 20 8 20 5 0 14
16 22 35 8 19 17 35 22 35 4 0 8 9 8 20 0 11 5 20 10 20 6 0 10 9 10 20 0 11
5 20 10 20 6 0 10 9 10 20 0 11 5 20 10 20 6 0 10 9 10 20 0 11 5 20 10 20 6
0 10 9 10 20 0 11 5 20 10 20 6 0 10 9 10 20 0 11 5 20 10 20 6 0 10 9 10 20
0 11 5 20 10 20 6 0 10 7 10 15 0 9 7 18 15 21 8 4 15 15 15 25 0 10 5 19 11
19 6 0 9 9 6 20 -3 13 0 20 9 20 8 0 14 7 14 15 0 8 5 15 10 15 6 0 10 9 10
20 0 11 5 20 10 20 6 0 10 9 10 20 0 11 5 20 10 20 6 0 10 9 10 20 0 11 5 20
10 20 6 0 10 9 10 20 0 11 5 20 10 20 6 0 10 9 10 20 0 11 5 20 10 20 6 0 10
9 10 20 0 11 5 20 10 20 6 0 10 9 10 20 0 11 5 20 10 20 6 0 10 9 10 20 0 11
7 20 15 20 11 0 15 12 15 44 0 25 -3 47 -8 50 -4 2 -187 7 -406 10 -392 6
-399 6 -413 -14 -8 -11 -21 -20 -29 -20 -9 0 -14 -11 -14 -30 0 -16 -4 -30
-10 -30 -5 0 -10 -9 -10 -20 0 -11 -4 -20 -10 -20 -5 0 -10 -9 -10 -20 0 -11
-4 -20 -10 -20 -5 0 -10 -9 -10 -20 0 -11 -4 -20 -10 -20 -5 0 -10 -9 -10 -20
0 -11 -4 -20 -10 -20 -5 0 -10 -9 -10 -20 0 -11 -4 -20 -10 -20 -5 0 -10 -9
-10 -20 0 -11 -4 -20 -10 -20 -5 0 -10 -6 -10 -14 0 -7 -7 -19 -15 -26 -8 -7
-15 -22 -15 -35 0 -12 -9 -30 -20 -40 -11 -10 -20 -29 -20 -42 0 -16 -7 -27
-20 -30 -15 -4 -20 -14 -20 -38 0 -25 -5 -35 -20 -40 -13 -4 -20 -15 -20 -32
0 -14 -9 -33 -19 -42 -10 -9 -21 -28 -22 -41 -2 -14 -15 -35 -28 -48 -14 -14
-21 -30 -18 -42 3 -13 0 -20 -9 -20 -8 0 -14 -9 -14 -20 0 -11 -4 -20 -10 -20
-5 0 -10 -9 -10 -20 0 -11 -4 -20 -10 -20 -5 0 -10 -9 -10 -20 0 -11 -4 -20
-10 -20 -5 0 -10 -13 -10 -30 0 -19 -7 -34 -20 -42 -12 -8 -20 -24 -20 -40 0
-18 -7 -29 -20 -33 -13 -4 -20 -15 -20 -32 0 -14 -9 -33 -19 -42 -10 -9 -21
-28 -22 -41 -4 -27 -22 -50 -38 -50 -6 0 -11 -11 -11 -24 0 -35 -10 -56 -26
-56 -9 0 -14 -12 -14 -34 0 -26 -5 -36 -20 -41 -14 -4 -20 -15 -20 -36 0 -16
-4 -29 -10 -29 -5 0 -10 -9 -10 -20 0 -11 -4 -20 -10 -20 -5 0 -10 -8 -10 -19
0 -10 -7 -24 -15 -31 -9 -7 -13 -15 -11 -18 3 -2 -2 -11 -10 -19 -8 -8 -12
-19 -9 -24 4 -5 1 -9 -4 -9 -6 0 -11 -7 -11 -15 0 -9 -7 -18 -15 -21 -8 -4
-15 -15 -15 -25 0 -10 -3 -19 -8 -19 -8 0 -27 -42 -36 -82 -11 -49 -34 -34
-34 22 -1 28 3 50 9 50 5 0 9 18 9 39 0 22 4 41 9 43 5 2 11 14 13 28 1 14 6
27 10 30 3 3 8 20 10 38 2 18 10 37 17 42 8 4 12 17 8 29 -3 14 0 21 9 21 10
0 14 12 14 40 0 22 5 40 10 40 6 0 10 9 10 20 0 11 5 20 10 20 6 0 10 18 10
40 0 22 5 40 10 40 6 0 10 14 10 30 0 17 5 30 10 30 6 0 10 18 10 40 0 22 5
40 10 40 6 0 10 13 10 29 0 16 4 31 10 33 5 2 10 19 12 38 1 19 5 37 9 40 4 3
9 16 10 30 2 14 9 30 15 37 6 6 10 24 8 40 -1 15 1 30 6 33 4 3 10 14 12 25 1
11 7 23 12 27 5 3 9 22 9 42 0 20 6 37 14 40 7 3 13 17 13 31 0 14 5 25 10 25
6 0 10 18 10 40 0 22 5 40 10 40 6 0 10 9 10 20 0 11 5 20 10 20 6 0 10 18 10
40 0 22 5 40 10 40 6 0 10 14 10 30 0 17 5 30 10 30 6 0 10 18 10 40 0 22 5
40 10 40 6 0 10 11 10 25 0 14 5 25 10 25 6 0 10 18 10 40 0 22 5 40 10 40 6
0 10 10 10 23 0 13 5 28 11 34 17 17 13 91 -7 110 -14 15 -48 17 -258 21 -132
2 -242 5 -244 7 -2 1 -4 349 -6 774 -4 666 -6 773 -19 785 -11 11 -49 17 -136
22 -106 6 -121 5 -121 -9z m314 -4255 c-4 -26 -9 -51 -10 -57 -1 -5 -2 -20 -3
-32 0 -13 -5 -23 -11 -23 -5 0 -9 43 -9 101 l0 102 21 -22 c17 -19 19 -29 12
-69z"/>
<path d="M9862 10342 l-34 -3 5 -790 c2 -434 0 -789 -5 -789 -4 0 -8 -9 -8
-19 0 -11 -5 -21 -11 -23 -6 -2 -11 -16 -11 -31 0 -16 -6 -27 -14 -27 -8 0
-14 -9 -14 -20 0 -11 -4 -20 -10 -20 -5 0 -10 -13 -10 -30 0 -16 -4 -30 -10
-30 -5 0 -10 -9 -10 -20 0 -11 -4 -20 -10 -20 -5 0 -10 -17 -10 -38 0 -26 -6
-42 -20 -52 -14 -10 -20 -26 -20 -52 0 -28 -5 -38 -20 -43 -15 -5 -20 -15 -20
-42 0 -24 -7 -42 -21 -53 -12 -11 -21 -32 -22 -54 -1 -20 -5 -36 -9 -36 -5 0
-8 -9 -8 -20 0 -11 -7 -20 -15 -20 -10 0 -15 -10 -15 -30 0 -16 -4 -30 -10
-30 -5 0 -10 -9 -10 -20 0 -11 -4 -20 -10 -20 -5 0 -10 -17 -10 -38 0 -26 -7
-45 -20 -57 -12 -11 -20 -31 -20 -51 0 -24 -5 -34 -20 -39 -15 -5 -20 -15 -20
-41 0 -33 -15 -72 -34 -85 -5 -4 -8 -18 -8 -33 0 -14 -4 -26 -9 -26 -5 0 -9
-9 -9 -19 0 -11 -5 -21 -11 -23 -6 -2 -12 -16 -12 -31 -1 -15 -8 -27 -14 -27
-7 0 -13 -9 -13 -20 0 -11 -4 -20 -10 -20 -5 0 -10 -15 -10 -34 0 -44 -9 -66
-26 -66 -10 0 -14 -12 -14 -38 0 -26 -6 -42 -20 -52 -14 -10 -20 -26 -20 -52
0 -21 -4 -38 -10 -38 -5 0 -10 -7 -10 -15 0 -8 -4 -15 -10 -15 -5 0 -10 -13
-10 -30 0 -16 -4 -30 -10 -30 -5 0 -10 -9 -10 -19 0 -11 -5 -21 -11 -23 -6 -2
-11 -16 -11 -30 0 -15 -7 -29 -15 -32 -8 -4 -13 -13 -9 -21 3 -9 0 -15 -9 -15
-10 0 -15 -11 -15 -34 0 -44 -9 -66 -26 -66 -10 0 -14 -12 -14 -40 0 -29 -5
-43 -20 -52 -14 -9 -20 -24 -20 -50 0 -21 -4 -38 -10 -38 -5 0 -10 -9 -10 -20
0 -11 -4 -20 -10 -20 -5 0 -10 -13 -10 -30 0 -16 -4 -30 -10 -30 -5 0 -10 -9
-10 -20 0 -11 -4 -20 -10 -20 -5 0 -10 16 -10 35 0 19 5 35 10 35 6 0 10 25
10 55 0 30 5 55 10 55 6 0 10 22 10 49 0 28 5 51 11 53 7 2 11 28 10 68 -1 35
3 66 8 70 6 3 11 26 12 50 2 25 7 48 12 51 5 4 9 35 9 70 0 35 5 67 10 70 5 3
10 21 10 40 1 19 5 37 11 41 5 3 10 32 9 65 0 32 4 61 10 64 5 3 10 26 11 50
0 24 5 47 11 51 5 3 10 35 10 70 0 35 6 68 12 75 6 7 10 27 9 44 -2 18 4 43
12 55 9 15 12 38 9 74 -4 39 -2 52 9 57 10 3 15 21 15 54 0 27 5 49 10 49 6 0
10 28 10 65 0 37 4 65 10 65 6 0 10 23 10 50 0 28 5 50 10 50 6 0 10 30 10 70
0 40 4 70 10 70 6 0 10 18 10 40 0 22 5 40 10 40 6 0 10 33 10 80 0 47 4 80
10 80 6 0 10 26 10 58 0 45 -4 60 -19 69 -13 8 -130 13 -397 15 l-379 3 -3
-37 c-2 -21 -7 -38 -13 -38 -5 0 -9 -9 -9 -20 0 -11 -4 -20 -10 -20 -6 0 -10
-50 -10 -130 0 -80 -4 -130 -10 -130 -5 0 -10 -13 -10 -29 0 -16 -5 -31 -11
-33 -7 -2 -11 -45 -11 -121 -1 -64 -5 -117 -10 -117 -4 0 -8 -9 -8 -19 0 -11
-5 -21 -11 -23 -8 -3 -12 -41 -12 -113 0 -61 -4 -112 -8 -115 -4 -3 -9 -16
-10 -30 -2 -14 -8 -28 -13 -32 -5 -3 -10 -59 -10 -122 0 -89 -3 -116 -13 -116
-7 0 -13 -9 -13 -20 0 -11 -5 -20 -11 -20 -7 0 -9 -40 -7 -119 2 -92 0 -117
-9 -114 -9 4 -13 -5 -13 -26 0 -17 -4 -31 -10 -31 -6 0 -10 -47 -10 -120 0
-73 -4 -120 -10 -120 -5 0 -10 -13 -10 -29 0 -16 -5 -31 -11 -33 -7 -2 -11
-40 -10 -111 1 -68 -2 -107 -9 -107 -5 0 -10 -13 -10 -29 0 -16 -5 -31 -11
-33 -8 -3 -12 -41 -11 -116 0 -63 -3 -112 -9 -112 -5 0 -9 -13 -9 -29 0 -16
-5 -31 -11 -33 -8 -3 -12 -42 -12 -121 0 -64 -4 -117 -8 -117 -5 0 -9 -9 -9
-19 0 -11 -5 -21 -11 -23 -8 -3 -12 -44 -12 -121 -1 -64 -5 -117 -9 -117 -4 0
-8 -9 -8 -19 0 -11 -6 -21 -12 -23 -9 -3 -12 -38 -12 -126 1 -67 -3 -122 -8
-122 -4 0 -8 -9 -8 -19 0 -10 -6 -21 -14 -24 -11 -5 -14 -31 -12 -127 2 -94 0
-123 -11 -127 -7 -3 -13 -14 -13 -24 0 -10 -4 -19 -10 -19 -6 0 -10 -45 -10
-115 0 -70 -4 -115 -10 -115 -5 0 -10 -9 -10 -20 0 -11 -4 -20 -10 -20 -6 0
-10 -50 -10 -130 0 -80 -4 -130 -10 -130 -5 0 -10 -9 -10 -20 0 -11 -4 -20
-10 -20 -6 0 -10 -47 -10 -120 0 -73 -4 -120 -10 -120 -6 0 -10 -27 -10 -60
l0 -60 168 -1 c92 0 264 -1 383 -2 187 -1 219 1 233 15 9 9 16 21 16 27 0 6 5
11 10 11 6 0 10 9 10 20 0 11 5 20 10 20 6 0 10 9 10 20 0 11 5 20 10 20 6 0
10 14 10 30 0 17 5 30 10 30 6 0 10 9 10 19 0 11 4 21 10 23 5 2 11 15 12 31
1 15 8 27 16 27 9 0 12 7 9 20 -3 13 0 20 9 20 8 0 14 9 14 20 0 11 5 20 10
20 6 0 10 14 10 30 0 17 5 30 10 30 6 0 10 9 10 20 0 11 5 20 10 20 6 0 10 9
10 20 0 11 5 20 10 20 6 0 10 14 10 30 0 17 5 30 10 30 6 0 10 7 10 15 0 8 5
15 10 15 6 0 10 9 10 20 0 11 5 20 10 20 6 0 10 10 10 23 0 12 7 31 15 41 8
10 12 23 9 28 -3 4 2 11 10 14 9 3 16 12 16 20 0 8 5 14 10 14 6 0 10 14 10
30 0 17 5 30 10 30 6 0 10 9 10 20 0 11 5 20 10 20 6 0 10 14 10 30 0 17 5 30
10 30 6 0 10 9 10 20 0 11 5 20 10 20 6 0 10 9 10 20 0 11 5 20 10 20 6 0 10
14 10 30 0 17 5 30 10 30 6 0 10 9 10 20 0 11 5 20 10 20 6 0 10 9 10 19 0 11
5 21 11 23 6 2 12 16 12 31 0 15 3 27 8 27 5 0 9 9 9 20 0 12 7 20 16 20 10 0
14 6 11 14 -3 8 1 17 9 20 8 3 14 17 14 31 0 14 5 25 10 25 6 0 10 9 10 20 0
11 5 20 10 20 6 0 10 9 10 20 0 11 5 20 10 20 6 0 10 14 10 30 0 17 5 30 10
30 6 0 10 9 10 20 0 11 5 20 10 20 6 0 10 9 10 20 0 11 5 20 10 20 6 0 10 14
10 30 0 17 5 30 10 30 6 0 10 9 10 19 0 11 5 21 10 23 6 2 12 14 13 28 1 14 7
31 14 38 7 8 11 18 8 23 -4 5 1 9 9 9 9 0 16 9 16 20 0 11 5 20 10 20 6 0 10
10 10 21 0 22 39 101 53 107 4 2 7 17 7 33 0 16 5 29 10 29 6 0 10 9 10 20 0
11 5 20 10 20 6 0 10 9 10 20 0 11 5 20 10 20 6 0 10 14 10 30 0 17 5 30 10
30 6 0 10 9 10 20 0 11 5 20 10 20 6 0 10 9 10 20 0 11 5 20 10 20 6 0 10 9
10 19 0 22 31 81 43 81 4 0 7 9 7 20 0 11 5 20 11 20 7 0 10 12 7 30 -3 20 0
30 9 30 7 0 13 7 13 15 0 8 5 15 10 15 6 0 10 9 10 20 0 11 5 20 10 20 6 0 10
14 10 30 0 17 5 30 10 30 6 0 10 8 10 19 0 10 6 24 14 30 8 7 13 21 11 32 -2
10 0 19 6 19 5 0 9 -177 10 -452 1 -506 3 -626 10 -632 2 -2 203 -6 445 -9
l441 -5 27 23 c15 13 26 33 26 48 0 14 5 27 11 29 6 2 11 20 11 41 0 20 4 37
9 37 5 0 9 13 9 29 0 16 5 31 10 33 6 2 12 16 14 32 2 15 9 31 16 36 8 5 10
17 6 33 -4 16 -1 29 9 37 8 7 15 23 15 36 0 13 5 24 10 24 6 0 10 18 10 39 0
22 5 43 10 46 6 3 10 17 10 31 0 13 5 24 10 24 6 0 10 16 10 35 0 19 5 35 10
35 6 0 10 13 10 28 0 28 -14 40 -62 56 -10 3 -90 6 -178 7 -89 0 -160 5 -160
10 0 5 5 9 10 9 6 0 10 13 10 29 0 16 4 31 9 33 5 2 11 17 13 33 1 17 7 33 11
36 4 3 9 17 10 30 0 13 5 27 10 30 4 3 9 21 9 40 1 19 5 37 11 40 5 4 10 18
10 33 0 15 5 26 13 26 10 0 14 13 14 40 0 22 5 40 10 40 6 0 10 14 10 30 0 17
5 30 10 30 6 0 10 18 10 40 0 22 5 40 10 40 6 0 10 14 10 30 0 17 5 30 10 30
6 0 10 14 10 30 0 17 5 30 10 30 6 0 10 14 10 30 0 17 5 30 10 30 6 0 10 16
10 35 0 19 5 35 10 35 6 0 10 14 10 30 0 17 5 30 10 30 6 0 10 15 10 34 0 19
5 38 10 41 6 3 10 19 10 35 0 15 5 30 12 32 6 2 11 19 10 38 0 19 3 37 8 40 5
3 11 15 13 25 2 11 8 30 15 42 7 12 12 29 12 37 0 9 5 16 11 16 7 0 10 15 7
40 -2 28 0 40 9 40 8 0 13 12 13 30 0 17 5 30 10 30 6 0 10 14 10 30 0 17 5
30 10 30 6 0 10 16 10 35 0 19 5 35 10 35 6 0 10 14 10 30 0 17 5 30 10 30 6
0 10 18 10 40 0 22 5 40 10 40 6 0 10 10 10 23 0 13 4 27 10 33 5 5 10 25 12
44 1 19 6 38 11 41 4 3 9 17 10 30 0 13 4 26 8 29 4 3 9 16 10 30 2 14 7 28
11 31 5 3 9 17 10 32 1 15 8 27 15 27 8 0 13 14 13 39 0 22 5 43 10 46 6 3 10
17 10 31 0 13 5 24 10 24 6 0 10 16 10 35 0 19 5 35 10 35 6 0 10 14 10 30 0
17 5 30 10 30 6 0 10 18 10 40 0 22 5 40 10 40 6 0 10 14 10 30 0 17 5 30 10
30 6 0 10 14 10 30 0 17 5 30 10 30 6 0 10 13 10 29 0 16 5 31 11 33 5 2 11
19 11 38 1 19 4 37 8 40 5 3 10 16 11 30 2 14 9 31 16 37 6 7 9 21 6 32 -3 11
2 30 11 43 9 12 16 30 16 40 0 10 5 18 11 18 7 0 10 15 7 40 -2 28 0 40 9 40
7 0 13 11 13 25 0 14 5 25 10 25 6 0 10 14 10 30 0 17 5 30 10 30 18 0 11 46
-9 64 -16 14 -42 19 -123 21 -218 6 -689 8 -694 2 -4 -3 -7 -21 -7 -39 -1 -18
-7 -39 -14 -46 -7 -8 -11 -18 -8 -23 4 -5 -1 -9 -9 -9 -12 0 -16 -11 -16 -50
0 -27 -4 -50 -10 -50 -5 0 -10 -9 -10 -20 0 -11 -4 -20 -10 -20 -5 0 -10 -23
-10 -51 0 -42 -3 -52 -20 -56 -17 -4 -20 -14 -20 -54 0 -27 -4 -49 -10 -49 -5
0 -10 -9 -10 -20 0 -11 -4 -20 -10 -20 -5 0 -10 -22 -10 -50 0 -27 -4 -50 -10
-50 -5 0 -10 -9 -10 -20 0 -11 -4 -20 -10 -20 -5 0 -10 -22 -10 -50 0 -27 -4
-50 -10 -50 -5 0 -10 -9 -10 -19 0 -11 -5 -21 -11 -23 -6 -2 -11 -25 -12 -51
0 -26 -4 -47 -9 -47 -4 0 -8 -7 -8 -16 0 -8 -6 -22 -14 -30 -8 -7 -13 -26 -11
-41 4 -34 -10 -63 -30 -63 -11 0 -15 -13 -15 -50 0 -27 -4 -50 -10 -50 -5 0
-10 -8 -10 -18 0 -10 -5 -23 -12 -30 -6 -6 -11 -29 -10 -52 1 -22 -3 -40 -8
-40 -6 0 -10 -9 -10 -20 0 -11 -4 -20 -10 -20 -5 0 -10 -21 -10 -46 0 -35 -5
-51 -21 -65 -16 -14 -21 -29 -21 -70 1 -42 -4 -57 -21 -71 -14 -13 -21 -30
-20 -53 1 -19 -3 -38 -8 -41 -5 -3 -9 -14 -9 -25 0 -10 -7 -19 -15 -19 -11 0
-15 -12 -15 -50 0 -27 -4 -50 -10 -50 -5 0 -10 -9 -10 -20 0 -11 -4 -20 -10
-20 -5 0 -10 -22 -10 -50 0 -27 -4 -50 -10 -50 -5 0 -10 -9 -10 -20 0 -11 -4
-20 -10 -20 -5 0 -10 -22 -10 -50 0 -27 -4 -50 -10 -50 -5 0 -10 -9 -10 -20 0
-11 -4 -20 -10 -20 -5 0 -10 -22 -10 -49 0 -41 -4 -51 -20 -56 -19 -6 -26 -35
-21 -87 1 -10 -3 -18 -8 -18 -6 0 -11 -9 -11 -19 0 -11 -5 -21 -11 -23 -6 -2
-11 -25 -12 -50 0 -29 -6 -49 -14 -52 -7 -3 -13 -12 -13 -20 0 -8 -4 -17 -8
-20 -4 -2 -8 348 -9 780 0 445 3 784 8 784 5 0 9 9 9 20 0 11 5 20 10 20 6 0
10 7 10 16 0 8 6 22 14 30 8 7 12 23 9 34 -3 11 0 20 6 20 6 0 11 7 11 15 0 9
7 18 16 22 9 3 14 13 11 24 -3 13 0 19 10 19 11 0 14 8 11 30 -3 20 0 30 9 30
7 0 13 9 13 20 0 11 5 20 10 20 6 0 10 9 10 19 0 11 5 23 10 26 6 3 10 15 10
26 0 10 5 19 10 19 6 0 10 9 10 20 0 11 5 20 10 20 6 0 10 14 10 30 0 17 5 30
10 30 6 0 10 9 10 20 0 11 5 20 10 20 6 0 10 9 10 19 0 11 5 21 11 23 6 2 12
16 12 31 0 15 3 27 8 27 5 0 9 9 9 20 0 11 5 20 10 20 6 0 10 6 10 14 0 7 7
19 15 26 8 7 15 23 15 36 0 13 5 24 10 24 6 0 10 9 10 20 0 11 5 20 10 20 6 0
10 9 10 19 0 11 5 23 10 26 6 3 10 17 10 31 0 13 5 24 10 24 6 0 10 7 10 15 0
8 5 15 10 15 6 0 10 11 10 24 0 16 7 27 20 31 12 4 314 3 673 0 619 -7 843 -8
877 -6 8 1 28 13 44 27 l28 25 0 207 c-1 412 -1 412 -16 412 -8 0 -16 4 -18
10 -2 6 -148 12 -388 14 -212 3 -628 8 -925 12 -297 3 -585 7 -640 8 -55 0
-115 0 -133 -2z m14 -3379 c-11 -11 -19 6 -11 24 8 17 8 17 12 0 3 -10 2 -21
-1 -24z"/>
<path d="M11940 8420 l0 -320 35 0 35 0 0 50 c0 28 5 50 10 50 6 0 10 14 10
30 0 17 5 30 10 30 6 0 10 18 10 40 0 22 5 40 10 40 6 0 10 14 10 30 0 17 5
30 10 30 6 0 10 14 10 30 0 17 5 30 10 30 6 0 10 13 10 29 0 16 5 31 12 33 6
2 11 19 10 37 0 19 5 40 13 47 7 8 11 23 8 34 -4 14 0 20 11 20 11 0 16 9 16
30 0 25 -4 30 -24 30 -14 0 -28 5 -31 10 -3 6 -46 10 -96 10 l-89 0 0 -320z"/>
<path d="M2584 7800 c-96 -7 -114 -13 -114 -36 0 -8 -4 -14 -10 -14 -5 0 -10
-9 -10 -19 0 -11 -4 -23 -10 -26 -5 -3 -10 -25 -10 -49 0 -30 -6 -48 -20 -61
-15 -14 -20 -31 -20 -71 0 -44 -3 -54 -20 -59 -16 -5 -20 -15 -20 -56 0 -27
-4 -49 -10 -49 -5 0 -10 -9 -10 -20 0 -11 -4 -20 -10 -20 -5 0 -10 -20 -10
-44 0 -25 -4 -48 -10 -51 -5 -3 -10 -15 -10 -25 0 -10 -5 -20 -10 -22 -6 -2
-11 -23 -12 -48 -2 -29 -9 -51 -22 -63 -13 -12 -20 -32 -21 -65 -2 -56 -12
-82 -31 -82 -10 0 -14 -13 -14 -45 0 -25 -4 -45 -10 -45 -5 0 -10 -9 -10 -20
0 -11 -4 -20 -10 -20 -5 0 -10 -22 -10 -50 0 -27 -4 -50 -10 -50 -5 0 -10 -9
-10 -19 0 -11 -5 -21 -12 -23 -7 -3 -11 -22 -10 -47 2 -32 -3 -48 -17 -60 -14
-12 -20 -33 -22 -71 -2 -41 -9 -61 -25 -77 -17 -17 -21 -32 -19 -70 2 -46 -10
-73 -34 -73 -6 0 -11 -20 -11 -45 0 -25 -4 -45 -10 -45 -5 0 -10 -9 -10 -20 0
-11 -4 -20 -10 -20 -5 0 -10 -22 -10 -50 0 -27 -4 -50 -10 -50 -5 0 -10 -9
-10 -20 0 -11 -4 -20 -10 -20 -5 0 -10 -22 -10 -50 0 -27 -4 -50 -10 -50 -5 0
-10 -9 -10 -20 0 -11 -4 -20 -10 -20 -5 0 -10 -21 -10 -46 0 -35 -5 -51 -21
-65 -16 -13 -21 -30 -21 -60 1 -24 -5 -48 -14 -56 -8 -8 -12 -18 -9 -23 3 -5
0 -10 -6 -12 -6 -2 -12 -22 -13 -45 0 -23 -7 -48 -13 -55 -7 -6 -13 -18 -13
-25 0 -7 -4 -13 -10 -13 -5 0 -10 -20 -10 -45 0 -25 -4 -45 -10 -45 -5 0 -10
-9 -10 -20 0 -11 -4 -20 -10 -20 -5 0 -10 -20 -10 -45 0 -35 -6 -52 -24 -70
-26 -26 -26 -65 0 -65 8 0 14 -4 14 -10 0 -5 9 -10 20 -10 11 0 20 -4 20 -10
0 -13 107 -13 115 0 9 14 558 2 567 -13 12 -19 88 27 88 55 0 7 7 21 14 31 8
10 11 27 9 38 -3 12 0 25 7 29 7 4 13 19 13 33 0 14 6 28 13 31 8 3 14 17 14
31 0 14 5 25 10 25 6 0 10 14 10 30 0 17 5 30 10 30 6 0 10 18 10 40 0 22 5
40 10 40 6 0 10 14 10 30 0 17 5 30 10 30 6 0 10 16 10 35 0 19 5 35 10 35 6
0 10 14 10 30 0 17 5 30 10 30 6 0 10 18 10 40 0 22 5 40 10 40 6 0 10 14 10
30 0 17 5 30 10 30 6 0 10 13 10 29 0 16 4 31 9 33 5 2 11 14 13 28 1 14 7 28
11 31 5 3 9 21 9 40 1 19 5 37 9 40 5 3 10 17 11 32 1 15 8 27 16 27 10 0 13
11 10 40 -3 29 0 40 10 40 10 0 13 9 10 30 -3 20 0 30 9 30 9 0 13 13 13 40 0
22 5 40 10 40 6 0 10 11 10 25 0 14 5 25 10 25 6 0 10 14 10 30 0 17 5 30 10
30 6 0 10 13 10 29 0 16 5 31 12 33 6 2 11 19 10 37 0 19 6 44 14 56 8 12 11
25 7 29 -4 4 -2 11 5 15 7 4 14 23 14 42 1 19 4 36 8 39 5 3 10 16 11 30 2 14
7 27 11 30 4 3 9 21 10 40 2 19 6 37 10 40 4 3 9 17 10 30 2 14 8 31 15 38 7
7 10 19 7 27 -4 8 1 18 10 21 9 3 16 17 16 30 0 13 5 24 10 24 6 0 10 18 10
40 0 22 5 40 10 40 6 0 10 14 10 30 0 17 5 30 10 30 6 0 10 18 10 40 0 22 5
40 10 40 6 0 10 14 10 30 0 17 5 30 10 30 6 0 10 18 10 40 0 22 5 40 10 40 6
0 10 14 10 30 0 17 5 30 10 30 6 0 10 13 10 29 0 16 4 31 9 33 5 2 11 14 13
28 1 14 6 28 10 31 5 3 10 19 12 37 2 17 9 39 16 47 7 8 10 24 7 34 -3 14 -1
18 9 14 11 -4 14 6 14 46 0 42 -3 51 -17 52 -10 0 -34 2 -53 4 -19 3 -142 5
-273 6 -130 1 -240 5 -243 10 -3 5 -13 8 -22 7 -9 0 -58 -4 -108 -8z"/>
<path d="M7130 6692 c-8 -3 -23 -13 -34 -24 -11 -10 -25 -18 -31 -18 -6 0 -26
-16 -45 -35 -19 -19 -43 -35 -55 -35 -11 0 -27 -9 -35 -20 -8 -11 -20 -20 -27
-20 -7 0 -30 -18 -52 -40 -22 -22 -44 -40 -51 -40 -6 0 -20 -9 -32 -20 -12
-11 -29 -20 -39 -20 -9 0 -19 -7 -23 -15 -3 -8 -14 -15 -25 -15 -12 0 -21 -9
-25 -25 -4 -16 -13 -25 -26 -25 -11 0 -20 -4 -20 -9 0 -5 -15 -16 -33 -24 -18
-9 -43 -25 -56 -36 -13 -12 -32 -21 -43 -21 -10 0 -18 -6 -18 -14 0 -8 -9 -18
-20 -21 -11 -3 -20 -11 -20 -16 0 -5 -7 -9 -15 -9 -9 0 -26 -10 -39 -22 -41
-40 -66 -58 -79 -58 -7 0 -19 -9 -27 -20 -8 -11 -21 -20 -28 -20 -8 0 -27 -13
-42 -30 -15 -16 -31 -30 -34 -30 -16 0 -54 -49 -56 -71 -5 -58 0 -89 15 -89 8
0 15 -4 15 -10 0 -13 67 -13 75 1 10 15 505 6 514 -10 9 -14 73 -11 83 3 3 5
25 9 47 8 23 -1 41 3 41 8 0 6 7 10 15 10 8 0 15 9 15 20 0 11 5 20 10 20 6 0
10 13 10 29 0 16 4 31 10 33 5 2 11 15 12 31 1 15 6 27 10 27 4 0 8 13 8 29 0
16 5 31 11 33 5 2 11 19 11 38 1 19 5 38 10 41 6 4 11 18 11 33 1 14 8 26 16
26 9 0 12 11 9 40 -2 28 0 40 9 40 8 0 13 12 13 30 0 17 5 30 10 30 6 0 10 14
10 30 0 17 5 30 10 30 6 0 10 14 10 30 0 17 5 30 10 30 6 0 10 16 10 35 0 19
5 35 10 35 6 0 10 14 10 30 0 17 5 30 10 30 6 0 10 18 10 39 0 39 -12 52 -40
43z"/>
<path d="M9800 5180 c0 -38 -4 -60 -11 -60 -6 0 -9 -9 -6 -20 3 -13 0 -20 -8
-20 -10 0 -15 -17 -17 -52 l-3 -53 -174 -3 c-180 -3 -207 -8 -196 -43 4 -13 1
-19 -9 -19 -9 0 -16 -8 -16 -19 0 -11 -4 -23 -10 -26 -5 -3 -10 -26 -10 -51 0
-24 -4 -44 -10 -44 -5 0 -10 -9 -10 -20 0 -11 -4 -20 -10 -20 -5 0 -10 -22
-10 -48 0 -36 -5 -51 -20 -62 -16 -12 -20 -26 -20 -72 0 -48 -3 -58 -20 -63
-20 -6 -24 -21 -20 -83 1 -23 -5 -39 -19 -51 -20 -18 -33 -92 -18 -107 3 -3
156 -8 341 -11 295 -4 337 -3 351 11 14 13 16 71 15 473 0 293 -4 459 -10 461
-6 2 -10 17 -10 33 0 27 -3 29 -35 29 l-35 0 0 -60z"/>
</g>
</svg>
